<svg fill="none" height="32" viewBox="0 0 32 32" width="32" xmlns="http://www.w3.org/2000/svg" xmlns:xlink="http://www.w3.org/1999/xlink"><clipPath id="a"><path d="m0 0h32v32h-32z"/></clipPath><g clip-path="url(#a)" fill="#212121"><path d="m8.32502 26.2821v-2.4361l-1.491-1.152c-.5121-.3966-.89745-.9339-1.10888-1.5462-.21143-.6122-.23977-1.2728-.08155-1.901.15822-.6281.49614-1.1964.97238-1.6354.47625-.4391 1.07017-.7297 1.70905-.8364v-.486l-1.531-.989c-.96517-.6229-1.671-1.5753-1.986-2.68h-.691c-.93369-.0008-1.82897-.3718-2.48956-1.0316-.66059-.6599-1.03259-1.5547-1.034442-2.4884v-2.257c.00063-.49585.111857-.98532.325578-1.43276.213724-.44743.524554-.84156.909854-1.15367.38531-.31211.83538-.53435 1.31743-.65053.48206-.11617.98395-.12336 1.46914-.02104v-.228c0-.88343.35094-1.73068.97562-2.35537.62469-.624682 1.47194-.9756258 2.35538-.9756258.88343 0 1.73069.3509438 2.35538.9756258.6247.62469.9756 1.47194.9756 2.35537v6.713c.0023.0671.0219.1325.0569.1898.0351.0574.0844.1046.1431.1372.0532.0347.1155.0532.179.053.0717-.0003.1415-.0226.2-.064.0514-.0329.0936-.0782.123-.1316.0293-.0535.0448-.1134.045-.1744v-.744c.0017-.75754.2616-1.49188.7368-2.08186.4752-.58999 1.1373-1.00038 1.877-1.16348.7398-.1631 1.5131-.06917 2.1923.2663.6792.33548 1.2238.89245 1.5439 1.57904.5264-.5088 1.2087-.82579 1.937-.9v-3.747c.0011-.87197.3479-1.70792.9645-2.324501.6166-.616578 1.4525-.96343636 2.3245-.96449764.873-.0007936 1.7106.34510864 2.3287.96167164.6181.616557.966 1.453317.9673 2.326327v3.9c.1941-.0349.3908-.05263.588-.053.8722.00106 1.7083.34806 2.3249.96485.6166.6168.9633 1.45301.9641 2.32515v3.779c.0002.518-.1166 1.0293-.3417 1.4957-.2251.4665-.5527.8761-.9583 1.1983l-2.582 2.065v.937c.0014.5619-.1241 1.1168-.367 1.6234s-.5971.9519-1.036 1.3026l-2.61 2.088v1.6272c.2559-.1096.5343-.1683.8203-.1683.6253 0 1.2154.279 1.6131.76l1.767 2.1423c.2438.295.0321.7376-.3495.7376h-21.38254c-.38483 0-.59328-.4458-.34635-.7408l1.35975-1.6195c.52796-.6289 1.20864-1.098 1.96526-1.3704zm15.27498-24.2821c-.3415.00053-.6688.13657-.9102.37825-.2413.24168-.3768.56924-.3768.91075v5.979c-.0001.0461-.0093.09171-.0271.13425-.0177.04253-.0437.08115-.0764.11365s-.0714.05825-.1141.07577c-.0426.01752-.0883.02646-.1344.02633-.0787-.00012-.1549-.02731-.216-.077l-.292-.241c-.1315-.1128-.2844-.19792-.4496-.25028s-.3392-.07089-.5117-.05447-.3399.06745-.4922.15003c-.1523.08259-.2864.19504-.3943.33063-.1079.13558-.1873.29153-.2336.45852-.0462.16697-.0583.34157-.0356.51337.0228.1717.08.3372.1681.4863.0881.1492.2054.2791.3449.3819l2.039 1.639c.1345.1071.243.2433.3175.3983.0744.155.1129.3248.1125.4967v4.807c-.0006.2627-.0599.522-.1735.7589-.1137.2368-.2789.4453-.4835.6101l-2.55 2.04c-.2532.2029-.4576.4601-.598.7526-.1404.2926-.2132.6129-.213.9374v4.1829c.2058.0501.4182.076.6328.076h1.3886c.1876 0 .3725-.024.5506-.0699v-3.519c.0005-.1451.0332-.2883.0958-.4192.0626-.131.1535-.2463.2662-.3378l3-2.4c.2053-.1642.371-.3725.4847-.6095.1138-.237.1727-.4966.1723-.7595v-1.351c-.0002-.1719.0384-.3416.1129-.4966.0744-.1549.1828-.2911.3171-.3984l2.9-2.322c.1697-.1359.3068-.3082.4011-.5041s.1435-.4105.1439-.6279v-3.775c0-.3419-.1358-.66972-.3775-.91146-.2418-.24173-.5696-.37754-.9115-.37754-.3418 0-.6697.13581-.9114.37754-.2418.24174-.3776.56956-.3776.91146v2.921c-.0005.1718-.0687.3365-.1898.4583-.1211.1219-.2854.1911-.4572.1927-.0856.0004-.1705-.0162-.2497-.0487-.0792-.0326-.1512-.0805-.2118-.141-.0607-.0605-.1087-.1325-.1414-.2116-.0327-.0792-.0493-.164-.0491-.2497v-10.057c0-.34186-.1358-.66972-.3775-.91146-.2418-.24173-.5696-.37754-.9115-.37754zm-6.828 25.0031v-3.5381c.0001-.6014.1521-1.193.4419-1.7199.2899-.527.7082-.9721 1.2161-1.2941l1.251-.8c.3736-.2366.6812-.5639.8944-.9513.2131-.3874.3248-.8225.3246-1.2647v-2.723c.0001-.1661-.0325-.3305-.096-.4839-.0636-.1535-.1568-.2928-.2743-.4102-.1175-.1173-.2571-.2103-.4106-.2736s-.318-.0957-.4841-.0953c-.1659-.0003-.3313.0322-.4846.0956-.1534.0634-.2927.1564-.41.2737-.1174.1174-.2104.2567-.2738.4101-.0634.1533-.0958.3177-.0956.4836v2.338c0 .2122-.0843.4157-.2343.5657s-.3535.2343-.5657.2343-.4156-.0843-.5657-.2343c-.15-.15-.2343-.3535-.2343-.5657v-.327c-.0092-.3289-.1464-.6413-.3824-.8707-.2359-.2294-.552-.3577-.8811-.3577s-.6452.1283-.8811.3577c-.236.2294-.3731.5418-.3824.8707v9.2989c.9223.0652 1.8042.4075 2.528.9812zm-3.785-.9926v-9.8865c-.0003-.2834.0706-.5623.2062-.8111s.3315-.4596.5698-.6129l1.212-.783c.5256-.3396.9577-.8054 1.2569-1.355.2993-.5495.4561-1.1653.4561-1.791v-1.436c0-.353-.1402-.69155-.3898-.94116s-.5882-.38984-.9412-.38984-.6915.14023-.9411.38984c-.2497.24961-.3899.58816-.3899.94116v.744c-.0003.3948-.0994.7832-.2882 1.1299s-.4614.6406-.7928.8551l-.019.012c-.3764.2435-.8152.3731-1.2635.3731s-.8871-.1296-1.2635-.3731l-.029-.019c-.3331-.2139-.60713-.508-.79705-.8554-.18991-.3473-.2896-.7367-.28993-1.1326v-6.712c-.00013-.17492-.03472-.3481-.10178-.50965-.06706-.16156-.16528-.30832-.28906-.43192-.12378-.12359-.2707-.2216-.43235-.28842-.16104-.06656-.33357-.10087-.50781-.10101-.35292.00027-.69132.14058-.94087.39014-.24955.24955-.38987.58794-.39013.94086v3.922c0 .18115-.07196.35487-.20005.48296s-.30181.20004-.48295.20004-.35487-.07195-.48296-.20004c-.12808-.12809-.20004-.30181-.20004-.48296v-.436c0-.353-.14023-.69154-.38984-.94116-.24961-.24961-.58816-.38984-.94116-.38984-.35301 0-.69155.14023-.94116.38984-.24961.24962-.38984.58816-.38984.94116v2.257c.00079.40358.16174.79034.44749 1.0753.28575.285.67293.445 1.07651.4447h1.821c.18203.0003.35651.0728.48513.2016s.20087.3034.20087.4854c.0004.4597.1157.912.3354 1.3158.2197.4037.53685.7462.9226.9962l1.667 1.081c.23774.1532.43332.3635.56888.6117.1355.2482.2068.5265.2071.8093v2.813c.0001.0369-.007.0735-.0211.1077-.0141.0341-.0348.0652-.0609.0913s-.0571.0468-.0913.0609c-.0341.0141-.0707.0212-.1077.0211-.06218.0002-.12256-.021-.17098-.06l-.186-.144c-.27966-.1991-.62545-.2823-.96506-.2323s-.64673.2294-.85713.5006c-.2104.2713-.30778.6133-.27177.9547.036.3414.2026.6556.46496.877l1.97198 1.526c.0917.0709.1659.1618.217.2658.0512.104.0778.2183.078.3342v2.7735z"/><path d="m4.97396 18.3714c0 1.0362-.83995 1.8761-1.87608 1.8761s-1.87608-.8399-1.87608-1.8761c0-1.0361.83995-1.876 1.87608-1.876s1.87608.8399 1.87608 1.876z"/><path d="m31 20.7539c0 .4142-.3358.75-.75.75s-.75-.3358-.75-.75.3358-.75.75-.75.75.3358.75.75z"/><path d="m30 23.5c0 .8284-.6716 1.5-1.5 1.5s-1.5-.6716-1.5-1.5.6716-1.5 1.5-1.5 1.5.6716 1.5 1.5z"/><path d="m31.5 24c.2761 0 .5-.2239.5-.5s-.2239-.5-.5-.5-.5.2239-.5.5.2239.5.5.5z"/><path d="m4.13057 23.0119c.42153 0 .76325-.3418.76325-.7633s-.34172-.7632-.76325-.7632c-.42154 0-.76326.3417-.76326.7632s.34172.7633.76326.7633z"/><path d="m2.3475 23.2143c0 .6482-.52551 1.1737-1.17375 1.1737-.648245 0-1.17375-.5255-1.17375-1.1737 0-.6483.525505-1.1738 1.17375-1.1738.64824 0 1.17375.5255 1.17375 1.1738z"/></g></svg>